<svg width="323" height="323" viewBox="0 0 323 323" fill="none" xmlns="http://www.w3.org/2000/svg">
<rect x="2" y="2" width="319" height="319" rx="159.5" fill="black" stroke="black" stroke-width="4" stroke-linejoin="round"/>
<rect x="12.075" y="12.075" width="298.551" height="298.551" rx="149.275" fill="black" stroke="white" stroke-width="8" stroke-linecap="square"/>
<path d="M162.2 252.32C159.8 252.32 157.96 250.88 156.68 248C156.04 246.72 154.68 243.68 152.6 238.88C150.52 234.08 148.84 229.76 147.56 225.92L99.8 115.76C98.04 111.76 95.8 108.4 93.08 105.68C90.36 102.96 86.76 100.96 82.28 99.68C80.52 99.04 79.16 98.4 78.2 97.76C77.4 97.12 77 96.08 77 94.64C77 93.52 77.4 92.64 78.2 92C79.16 91.36 80.28 91.04 81.56 91.04C84.92 91.04 91.24 91.2 100.52 91.52C109.16 91.84 115 92 118.04 92L137.24 91.52C144.92 91.04 151.88 90.8 158.12 90.8C159.56 90.8 161 91.2 162.44 92C163.88 92.64 164.6 93.44 164.6 94.4C164.6 96.8 162.36 98.56 157.88 99.68C152.76 100.8 149.24 102 147.32 103.28C145.4 104.56 144.44 106.56 144.44 109.28C144.44 110.4 144.76 112.24 145.4 114.8L175.64 200.72C176.12 202 176.52 202.64 176.84 202.64C177.16 202.64 177.56 201.92 178.04 200.48L204.92 129.68C207 124.56 208.04 119.76 208.04 115.28C208.04 106.32 203.16 101.12 193.4 99.68C191.64 99.36 189.96 98.72 188.36 97.76C186.92 96.8 186.2 95.68 186.2 94.4C186.2 93.44 186.92 92.64 188.36 92C189.8 91.36 191.4 91.04 193.16 91.04C196.68 91.04 200.68 91.2 205.16 91.52L215.96 91.76C220.44 91.76 224.6 91.52 228.44 91.04C229.72 91.04 231.72 90.96 234.44 90.8C237.32 90.48 239.88 90.32 242.12 90.32C246.92 90.32 249.32 91.68 249.32 94.4C249.32 95.68 248.84 96.64 247.88 97.28C247.08 97.76 246.12 98.16 245 98.48C244.04 98.8 243.4 99.04 243.08 99.2C238.28 100.48 234.44 102.88 231.56 106.4C228.68 109.76 225.56 115.36 222.2 123.2L187.64 205.52C182.52 217.52 176.12 231.68 168.44 248C167.64 249.6 166.84 250.72 166.04 251.36C165.24 252 163.96 252.32 162.2 252.32Z" fill="white"/>
</svg>

